<svg width="98" height="98" viewBox="0 0 98 98" fill="none" xmlns="http://www.w3.org/2000/svg">
<path d="M25.8926 90.0108C24.7219 90.0108 23.6194 89.8771 22.5921 89.6028C19.0662 88.6633 16.6155 86.0952 15.4926 82.1659C6.55338 75.2604 1.23901 65.5023 0.529064 54.6743C-0.249148 42.8521 4.41671 31.2458 13.6597 21.9917L14.2706 21.3813L14.4993 22.218C18.0525 35.1786 36.477 57.6265 55.5705 72.2603L56.0279 72.61L55.6183 73.018C44.8496 83.798 33.8488 90.0108 25.8926 90.0108ZM13.7757 23.3152C5.13348 32.2573 0.791881 43.3389 1.53255 54.6092C2.22884 65.1971 7.45105 74.7358 16.2332 81.4664L16.3698 81.5693L16.4141 81.7339C17.4313 85.4403 19.5953 87.7582 22.8515 88.6256C23.814 88.8828 24.8516 89.0097 25.9472 89.0097C33.5075 89.0097 44.0509 83.0539 54.5021 72.7095C35.8251 58.2642 17.8716 36.4575 13.7757 23.3152Z" fill="#FF3300"/>
<path d="M23.3828 89.7264C13.6347 82.2552 4.21425 70.745 2.38477 64.0658L3.35412 63.7983C5.13582 70.2958 14.3958 81.566 23.9938 88.9241L23.3828 89.7264Z" fill="#FF3300"/>
<path d="M37.4984 86.4242C20.8727 73.6831 4.81353 54.0741 1.69727 42.7148L2.66662 42.4473C5.73168 53.625 21.6304 72.9939 38.106 85.6219L37.4984 86.4242Z" fill="#FF3300"/>
<path d="M15.7392 82.3339C10.5648 80.1943 7.28465 76.3302 6.26069 71.1631C4.38001 61.6792 10.1449 49.1232 21.6816 37.5752L22.3915 38.2918C11.0938 49.5998 5.43469 61.8129 7.2471 70.9642C8.2028 75.785 11.2713 79.3954 16.1215 81.4013L15.7392 82.3339Z" fill="#FF3300"/>
<path d="M14.1404 83.1122C13.8673 83.1122 13.6421 83.023 13.4748 82.807C13.1301 82.3578 12.5533 81.6035 19.0623 74.0603C23.2298 69.2327 29.2541 62.8552 36.4799 55.624L37.1898 56.3406C21.0999 72.4419 14.8606 80.3383 14.352 82.0698C14.5636 82.0081 14.963 81.8504 15.6763 81.4321L16.1815 82.3064C15.4374 82.7384 14.6968 83.1122 14.1404 83.1122Z" fill="#FF3300"/>
<path d="M45.0987 91.7902C39.9072 91.7902 34.7601 91.0496 29.8826 89.5513C27.1862 90.1376 24.7287 90.1719 22.592 89.6027C19.0184 88.6495 16.5472 86.0231 15.4448 82.0012L15.0488 80.5577L16.2332 81.4663C20.3632 84.631 25.0154 86.9763 29.9509 88.5226C37.1187 86.8803 46.0613 81.1577 54.9083 72.3047L55.2189 71.9927L55.5671 72.2602C63.5881 78.4044 69.3428 81.48 73.4045 82.9235C76.9235 80.7943 80.2173 78.2433 83.1799 75.2774L83.7909 74.6671L84.0196 75.5037C85.4975 80.8971 84.0537 83.2184 82.5792 84.2161C80.6439 85.5293 77.5208 85.4299 73.5069 84.0344C64.8544 89.1604 54.8912 91.7902 45.0987 91.7902ZM31.7906 89.0541C44.969 92.6131 59.9223 90.6519 72.2918 83.5784C67.5816 81.7235 61.7791 78.2502 55.3111 73.3265C47.1023 81.4732 38.7809 86.9557 31.7906 89.0541ZM16.9124 83.2184C18.0627 86.0642 20.0526 87.8815 22.848 88.6255C24.3567 89.0267 26.0462 89.1089 27.8757 88.8861C23.988 87.5009 20.2949 85.6151 16.9124 83.2184ZM74.6606 83.335C79.3981 84.7545 81.4563 83.7636 82.0229 83.3761C83.9718 82.0526 83.8421 79.1176 83.2653 76.6078C80.62 79.1691 77.729 81.4114 74.6606 83.335Z" fill="#FF3300"/>
<path d="M35.7269 95.8636C32.9725 95.8636 28.5797 93.7069 23.3848 89.7261L23.9957 88.9238C31.3853 94.5846 35.6484 95.4795 37.0547 94.5264C38.0274 93.8646 37.8227 92.2223 37.4745 90.9605L38.4439 90.693C39.2289 93.5595 38.4268 94.8144 37.6179 95.363C37.1229 95.699 36.4881 95.8636 35.7269 95.8636Z" fill="#FF3300"/>
<path d="M58.3557 96.8649C53.7547 96.8649 46.3275 93.1927 37.4941 86.4244L38.1051 85.6221C48.6314 93.6899 57.5672 97.458 60.8644 95.2191C62.7075 93.971 62.3526 90.9983 61.7279 88.7251L62.6973 88.4576C63.9841 93.155 62.7178 95.1814 61.4276 96.0557C60.6289 96.5974 59.5947 96.8649 58.3557 96.8649Z" fill="#FF3300"/>
<path d="M42.5039 96.7071C41.4662 96.7071 40.4286 96.6591 39.3978 96.5631C29.7248 95.658 21.243 90.5389 15.5156 82.1522L16.345 81.5796C21.9017 89.716 30.1241 94.6773 39.4934 95.5551C50.5658 96.594 62.2561 91.8383 71.5741 82.5156L72.2841 83.2322C63.618 91.9035 52.921 96.7071 42.5039 96.7071Z" fill="#FF3300"/>
<path d="M50.5362 97.4788C50.3485 97.4788 50.1608 97.4788 49.973 97.4754C37.0097 97.3211 24.7904 91.9003 15.5645 82.2141L16.2915 81.5146C25.3262 91.002 37.293 96.3096 49.9833 96.4639C50.1676 96.4674 50.3519 96.4674 50.5362 96.4674C62.3459 96.4674 73.3978 91.9037 81.7124 83.5822L82.4223 84.2988C73.92 92.8123 62.6156 97.4788 50.5362 97.4788Z" fill="#FF3300"/>
<path d="M45.0986 91.7903C34.4426 91.7903 23.9845 88.6736 15.6256 82.2688L15.489 82.1659L15.4447 82.0013C11.8232 68.7938 23.708 43.2086 41.9346 24.9644L42.2452 24.6523L42.5933 24.9198C61.837 39.6668 80.4219 62.3547 84.0229 75.497L84.1014 75.7816L83.8932 75.9907C73.5034 86.3901 59.1269 91.7903 45.0986 91.7903ZM16.3696 81.5693C35.2788 95.9391 65.0523 93.2098 82.975 75.4833C79.258 62.5604 61.1612 40.5239 42.3339 25.993C24.5852 43.9081 12.9974 68.7013 16.3696 81.5693Z" fill="#FF3300"/>
<path d="M37.4737 90.9608C35.692 84.4633 26.4319 73.1931 16.834 65.835L17.4449 65.0327C27.1931 72.5039 36.6135 84.0142 38.443 90.6933L37.4737 90.9608Z" fill="#FF3300"/>
<path d="M61.7304 88.7249C58.6653 77.5473 42.7666 58.1784 26.291 45.5504L26.902 44.748C43.5277 57.4892 59.5869 77.0981 62.6997 88.4575L61.7304 88.7249Z" fill="#FF3300"/>
<path d="M26.1042 84.175C22.2678 84.175 18.7556 83.5818 15.7383 82.3337L16.1206 81.4011C30.6984 87.4288 57.1849 77.6912 75.1657 59.6938L75.8757 60.4105C61.3251 74.9688 41.2179 84.175 26.1042 84.175Z" fill="#FF3300"/>
<path d="M16.1828 82.3029L15.6777 81.4286C22.231 77.5919 42.2802 59.7453 60.3668 41.6416L61.0768 42.3582C42.939 60.5133 22.7976 78.4319 16.1828 82.3029Z" fill="#FF3300"/>
<path d="M16.8099 83.1778L15.6255 82.2692C6.60442 75.3568 1.24227 65.5575 0.528907 54.6747C-0.242478 42.9416 4.34488 31.4176 13.4547 22.2012C12.1031 17.0101 13.523 14.754 14.9702 13.7734C19.3118 10.8281 29.6402 14.994 42.5933 24.9236L43.0507 25.2733L42.6411 25.6814C24.6432 43.6959 12.8779 68.8388 16.4106 81.7343L16.8099 83.1778ZM18.5131 13.9105C16.7792 13.9105 15.8781 14.3734 15.53 14.6066C13.3558 16.0809 13.7688 19.5577 14.4958 22.2149L14.5743 22.4995L14.3661 22.7087C5.33471 31.7537 0.774658 43.0822 1.53239 54.6096C2.19797 64.7415 7.01059 73.9133 15.1238 80.5857C12.6765 67.1347 24.1586 42.9553 41.525 25.3762C28.9439 15.8135 22.0253 13.9105 18.5131 13.9105Z" fill="#FF3300"/>
<path d="M16.8337 65.8353C9.44748 60.1744 5.18438 59.2761 3.77472 60.2327C2.80196 60.8944 3.00675 62.5368 3.3549 63.7986L2.38555 64.066C1.60051 61.1996 2.40261 59.9447 3.21154 59.3961C5.49839 57.8463 10.8196 59.955 17.4446 65.0329L16.8337 65.8353Z" fill="#FF3300"/>
<path d="M26.2915 45.5506C15.7651 37.4828 6.83617 33.7146 3.53219 35.9536C1.68905 37.2016 2.04403 40.1743 2.66864 42.4476L1.69929 42.715C0.412516 38.0211 1.67881 35.9913 2.96901 35.117C6.74402 32.5557 15.6934 36.1559 26.9024 44.7482L26.2915 45.5506Z" fill="#FF3300"/>
<path d="M15.515 82.152C2.61994 63.2769 6.9991 33.0423 25.2734 14.75L25.9833 15.4666C8.0333 33.4298 3.70876 63.0883 16.341 81.5829L15.515 82.152Z" fill="#FF3300"/>
<path d="M15.5635 82.2171C-2.98051 62.7488 -3.17507 32.0033 15.13 13.6836L15.8399 14.4002C-2.07943 32.3325 -1.87805 62.4436 16.2905 81.5176L15.5635 82.2171Z" fill="#FF3300"/>
<path d="M55.3108 73.3301L54.9626 73.0626C35.7189 58.3157 17.134 35.6243 13.5297 22.4854L13.4512 22.2009L13.6594 21.9917C31.9439 3.69256 62.5672 0.881012 81.927 15.7171L82.0635 15.82L82.1079 15.9846C85.7293 29.192 73.8479 54.7772 55.6214 73.0181L55.3108 73.3301ZM14.5809 22.4992C18.2979 35.422 36.3947 57.4585 55.222 71.9895C72.9673 54.0778 84.5551 29.2846 81.1829 16.4166C62.2737 2.04678 32.5003 4.77605 14.5809 22.4992Z" fill="#FF3300"/>
<path d="M70.6532 53.2377C54.0274 40.4965 37.9683 20.8876 34.8555 9.52818L35.8248 9.26074C38.8899 20.4384 54.7886 39.8073 71.2641 52.4353L70.6532 53.2377Z" fill="#FF3300"/>
<path d="M80.1093 32.9534C70.3612 25.4822 60.9407 13.972 59.1113 7.29283L60.0806 7.02539C61.8623 13.5228 71.1224 24.793 80.7203 32.1511L80.1093 32.9534Z" fill="#FF3300"/>
<path d="M22.3915 38.2916L21.6816 37.575C39.9252 19.317 66.8998 9.48341 81.8155 15.6517L81.4332 16.5843C66.8554 10.5601 40.3723 20.2942 22.3915 38.2916Z" fill="#FF3300"/>
<path d="M37.1904 56.341L36.4805 55.6243C54.6183 37.4726 74.7562 19.5541 81.371 15.6831L81.8762 16.5574C75.3228 20.3907 55.277 38.2407 37.1904 56.341Z" fill="#FF3300"/>
<path d="M79.0639 85.1421C73.7632 85.1421 65.179 80.8939 54.9632 73.0627L54.5059 72.713L54.9155 72.305C72.9133 54.2938 84.6786 29.151 81.1425 16.2555L80.7466 14.812L81.931 15.7206C90.9521 22.6329 96.3108 32.4323 97.0276 43.3185C97.799 55.0516 93.2116 66.5721 84.1052 75.7886C85.4568 80.9797 84.0369 83.2358 82.5897 84.2164C81.6682 84.837 80.4838 85.1421 79.0639 85.1421ZM56.0282 72.6067C74.8145 86.8839 80.9719 84.0861 82.0232 83.3763C84.1974 81.902 83.7844 78.4252 83.0574 75.768L82.9788 75.4834L83.1871 75.2742C92.2218 66.2327 96.7784 54.9042 96.0241 43.3802C95.3586 33.2483 90.5459 24.073 82.4327 17.4007C84.88 30.855 73.398 55.031 56.0282 72.6067Z" fill="#FF3300"/>
<path d="M91.512 63.6779C86.9109 63.6779 79.4838 60.0058 70.6504 53.2374L71.2614 52.4351C81.7877 60.5029 90.7235 64.2711 94.0207 62.0321C95.8638 60.7841 95.5088 57.8114 94.8842 55.5381L95.8536 55.2707C97.1403 59.9646 95.874 61.9944 94.5838 62.8687C93.7852 63.4139 92.7509 63.6779 91.512 63.6779Z" fill="#FF3300"/>
<path d="M92.4495 39.0907C89.6917 39.0907 85.3023 36.9374 80.1074 32.9532L80.7184 32.1509C88.1045 37.8117 92.371 38.7101 93.7773 37.7535C94.75 37.0917 94.5453 35.4494 94.1971 34.1876L95.1665 33.9201C95.9515 36.7866 95.1494 38.0415 94.3405 38.5901C93.8455 38.9261 93.2107 39.0907 92.4495 39.0907Z" fill="#FF3300"/>
<path d="M72.2822 83.2321L71.5723 82.5155C89.5189 64.5524 93.8435 34.8939 81.2112 16.4027L82.0406 15.8301C94.9323 34.7087 90.5566 64.9433 72.2822 83.2321Z" fill="#FF3300"/>
<path d="M82.4256 84.2986L81.7157 83.582C99.6351 65.6498 99.4303 35.5421 81.2617 16.4646L81.9887 15.7651C100.533 35.2403 100.727 65.9823 82.4256 84.2986Z" fill="#FF3300"/>
<path d="M83.2826 76.6047L83.054 75.7681C79.5008 62.8075 61.0763 40.3596 41.9828 25.7258L41.5254 25.3726L41.935 24.9646C54.2874 12.6006 66.9436 6.24718 74.9612 8.38328C78.4871 9.32275 80.9378 11.8909 82.0641 15.8202C91.0033 22.7257 96.3143 32.4838 97.0276 43.3152C97.8059 55.1375 93.14 66.7403 83.897 75.991L83.2826 76.6047ZM43.0511 25.2766C61.7316 39.7219 79.6817 61.5286 83.781 74.6709C92.4198 65.7322 96.7614 54.654 96.0208 43.3838C95.3245 32.7958 90.1022 23.2571 81.3166 16.5231L81.1801 16.4202L81.1357 16.2556C80.1186 12.5492 77.9546 10.2314 74.6984 9.3639C67.1143 7.33752 55.0212 13.4304 43.0511 25.2766Z" fill="#FF3300"/>
<path d="M94.8867 55.5389C91.8216 44.3612 75.9229 24.9923 59.4473 12.3643L60.0583 11.562C76.684 24.3031 92.7432 43.912 95.856 55.2714L94.8867 55.5389Z" fill="#FF3300"/>
<path d="M94.2002 34.1878C92.4185 27.6904 83.1585 16.4201 73.5605 9.06209L74.1715 8.25977C83.9196 15.731 93.3401 27.2412 95.1696 33.9204L94.2002 34.1878Z" fill="#FF3300"/>
<path d="M75.876 60.4075L75.166 59.6909C86.4603 48.3864 92.1228 36.1732 90.307 27.022C89.3513 22.2012 86.2828 18.5907 81.4327 16.5849L81.8149 15.6523C86.9894 17.7918 90.2695 21.656 91.2934 26.8265C93.1741 36.3104 87.4092 48.8664 75.876 60.4075Z" fill="#FF3300"/>
<path d="M61.0752 42.3586L60.3652 41.642C76.4517 25.5407 82.691 17.6477 83.1996 15.9162C82.988 15.9779 82.5886 16.1357 81.8753 16.554L81.3701 15.6796C82.4794 15.0316 83.575 14.5207 84.0734 15.1722C84.4181 15.6248 84.9983 16.3791 78.4859 23.9223C74.3218 28.7568 68.3009 35.1274 61.0752 42.3586Z" fill="#FF3300"/>
<path d="M42.3336 25.9934L41.9821 25.7259C33.9644 19.5782 28.2064 16.5061 24.148 15.0626C20.629 17.1918 17.3353 19.7428 14.3692 22.7086L13.7582 23.319L13.5295 22.4824C12.0516 17.089 13.4954 14.7677 14.9699 13.7699C16.9052 12.4567 20.0283 12.5562 24.0456 13.9517C37.2923 6.1102 53.5972 4.10782 67.6699 8.43488C70.3663 7.84857 72.8272 7.81428 74.9605 8.38345C78.5341 9.33664 81.0053 11.963 82.1078 15.9849L82.5037 17.4284L81.3193 16.5198C77.1893 13.3551 72.5371 11.0098 67.6016 9.4635C60.4339 11.1058 51.4913 16.8284 42.6476 25.6779L42.3336 25.9934ZM25.2642 14.4043C29.9744 16.2592 35.7769 19.7325 42.2449 24.6562C50.4502 16.5129 58.7717 11.0304 65.7619 8.93205C52.5835 5.37645 37.6336 7.33426 25.2642 14.4043ZM18.5128 13.9105C16.7789 13.9105 15.8778 14.3734 15.5297 14.6066C13.5807 15.93 13.7104 18.865 14.2839 21.3749C16.9291 18.817 19.8235 16.5712 22.892 14.6511C21.0523 14.0991 19.6153 13.9105 18.5128 13.9105ZM69.6734 9.10005C73.5645 10.4852 77.2576 12.371 80.6401 14.7677C79.4898 11.9219 77.4999 10.1046 74.7045 9.36064C73.1925 8.95948 71.5029 8.87719 69.6734 9.10005Z" fill="#FF3300"/>
<path d="M59.4477 12.3636C48.9214 4.29578 39.9856 0.527602 36.6884 2.76656C34.8453 4.01805 35.2003 6.98733 35.8249 9.26058L34.8555 9.52802C33.5688 4.83409 34.8351 2.80428 36.1253 1.92995C39.9003 -0.631309 48.8463 2.96886 60.0587 11.5613L59.4477 12.3636Z" fill="#FF3300"/>
<path d="M73.5583 9.06173C66.1721 3.40089 61.9056 2.50256 60.4993 3.45918C59.5266 4.12092 59.7314 5.76329 60.0795 7.02506L59.1102 7.2925C58.3251 4.42608 59.1272 3.17117 59.9362 2.62257C62.2196 1.07278 67.5408 3.17802 74.1693 8.2594L73.5583 9.06173Z" fill="#FF3300"/>
<path d="M81.2111 16.4065C75.6509 8.27008 67.4285 3.30528 58.0593 2.42753C46.9834 1.39205 35.2966 6.14427 25.9853 15.4636L25.2754 14.747C34.8017 5.21165 46.7854 0.35657 58.1548 1.41948C67.8279 2.32466 76.3097 7.44376 82.0405 15.8304L81.2111 16.4065Z" fill="#FF3300"/>
<path d="M81.2618 16.4681C72.2236 6.98077 60.2603 1.67309 47.5666 1.5188C35.5248 1.38165 24.2851 5.94872 15.8408 14.4005L15.1309 13.6839C23.6332 5.17383 34.9377 0.507324 47.0137 0.507324C47.2014 0.507324 47.3891 0.507324 47.5768 0.510753C60.5402 0.665046 72.7595 6.08587 81.9854 15.772L81.2618 16.4681Z" fill="#FF3300"/>
<path d="M48.6198 98.0004C47.746 98.0004 46.8279 97.9592 46.135 97.9112C44.9677 97.8289 43.3396 97.6575 41.1586 97.3832C39.8718 97.222 38.2744 96.8654 37.2948 96.6117C35.6872 96.1934 33.5334 95.5351 31.9327 94.9797C30.5469 94.4962 27.5364 93.2344 24.9219 91.7326C23.7136 91.04 20.5052 89.1954 17.2149 86.3632C15.5595 84.9403 13.0508 82.6499 10.3578 79.1972C9.47035 78.0589 8.78429 77.0645 8.78088 77.0577C8.088 76.053 8.088 76.053 7.04014 74.373C6.2278 73.0735 5.37109 71.3694 5.00587 70.6391C4.45976 69.5487 3.88634 68.2595 3.53819 67.3338C3.27879 66.648 3.00914 65.8869 2.75315 65.1257C2.3777 64.1176 2.04662 63.089 1.75991 62.0433C1.37422 60.5278 0.865653 58.5322 0.657447 57.0064C0.462895 55.587 0.247862 53.9652 0.142053 52.7205C0.101094 52.2234 -0.0320202 50.4987 -0.00130131 49.1478L0.0055251 48.9352C0.0362439 47.6906 0.0737892 46.1408 0.162532 44.951C0.241036 43.9053 0.411696 42.4721 0.599423 41.296C1.2923 36.9004 2.41183 33.7254 2.45621 33.5951C2.78729 32.6659 3.40166 30.9344 3.91706 29.7137C4.29251 28.8257 4.90348 27.5331 5.54857 26.2644C6.50768 24.3821 7.97536 21.9957 9.20753 20.3293C10.781 18.2001 12.7948 15.8274 14.341 14.2913C16.679 11.9666 17.5972 11.2706 20.6418 8.9631C21.7033 8.15735 23.1983 7.25559 24.2325 6.64528C25.1745 6.08982 26.5022 5.38008 27.6115 4.84176C28.6867 4.3206 30.2124 3.66228 31.4992 3.16854C32.2296 2.88739 33.117 2.6028 33.9772 2.32508C34.3526 2.20507 34.711 2.08849 35.0387 1.97877C36.2435 1.57418 37.8341 1.23474 39.2301 0.94673C39.9844 0.792437 40.8957 0.655287 41.7798 0.528424C42.1518 0.473565 42.5136 0.422134 42.8379 0.370703C44.1792 0.158121 45.9507 0.0792607 47.3433 0.0312584C48.5379 -0.00988627 49.9373 0.000399873 50.9033 0.0586883C52.3027 0.140978 54.2414 0.326129 55.8456 0.528424C58.1222 0.816438 60.1531 1.35817 62.3034 1.93077C63.9076 2.35593 66.0374 3.11026 67.6007 3.79943C69.0479 4.4406 70.1265 4.9412 70.8978 5.33893C71.874 5.83953 73.1745 6.57327 74.137 7.15959C75.137 7.7699 76.2805 8.52422 77.0519 9.07968C78.2021 9.91286 78.5912 10.1905 80.3149 11.6238C80.5026 11.7815 81.4856 12.6147 82.7758 13.8696C83.7588 14.8296 84.5814 15.7279 84.9739 16.1634C85.4518 16.688 86.5133 17.9292 87.1823 18.8035C88.2608 20.2059 88.4554 20.4939 89.5305 22.0882C90.3395 23.2883 91.7696 25.7501 92.5444 27.3891C93.1383 28.6474 94.135 30.7561 94.9507 33.2488C95.8347 35.9609 96.4457 38.3439 96.7666 40.336C97.0908 42.352 97.456 44.6322 97.5277 47.9032C97.6028 51.4896 97.2854 54.3217 97.0908 55.6898C96.8894 57.0887 96.5208 59.6946 95.4149 63.3599C94.7493 65.5714 93.5513 68.4104 92.6639 70.3991C92.2543 71.3145 91.6024 72.5317 90.6603 74.1227C90.2507 74.8187 89.7115 75.621 89.1926 76.3959C88.964 76.7354 88.7455 77.0645 88.551 77.3628C87.8205 78.4875 86.7044 79.8589 85.9057 80.771L85.7589 80.939C84.7998 82.0328 83.6052 83.394 82.5608 84.3334C82.3253 84.546 82.0693 84.7792 81.8064 85.0192C81.0931 85.6741 80.2808 86.4147 79.6015 86.9701C78.6595 87.7382 77.2737 88.8422 76.1405 89.5623L75.3623 90.0629C74.5534 90.584 73.6352 91.1772 72.8775 91.6058C71.7068 92.2675 70.1776 93.0561 69.0684 93.5636C65.1602 95.3602 61.7812 96.2311 61.4125 96.3271C59.112 96.9066 56.0948 97.4209 54.2107 97.6883C53.1867 97.8324 51.8999 97.8872 50.7633 97.9352C50.3913 97.9524 50.0295 97.9661 49.6984 97.9832C49.3639 97.9901 48.9953 98.0004 48.6198 98.0004ZM10.1427 77.2291C10.409 77.596 10.7605 78.0691 11.153 78.5732C13.7915 81.9539 16.2524 84.1997 17.8736 85.5952C21.0923 88.3656 24.2393 90.1726 25.4237 90.8549C27.9802 92.3224 30.9155 93.5567 32.2637 94.0265C33.8406 94.5751 35.9637 95.2197 37.5474 95.6345C38.7966 95.9603 40.2643 96.2551 41.2814 96.382C43.4454 96.6529 45.053 96.8243 46.2033 96.9032C47.1658 96.9683 48.5755 97.0232 49.6472 96.9649C49.9817 96.9477 50.3435 96.934 50.7224 96.9169C51.8351 96.8689 53.098 96.8175 54.0707 96.6803C55.9309 96.4163 58.9038 95.9088 61.1668 95.3397C61.5286 95.2471 64.8223 94.3968 68.6519 92.6378C69.7373 92.1407 71.2392 91.3692 72.386 90.7177C73.1198 90.3029 74.0243 89.72 74.823 89.2057L75.6081 88.7016C76.7003 88.009 78.0519 86.929 78.9735 86.1781C79.6322 85.6432 80.4309 84.9095 81.1341 84.2649C81.4003 84.0214 81.6563 83.7848 81.8952 83.5723C82.8953 82.6705 84.0694 81.3367 85.0115 80.2601L85.1582 80.0921C85.9364 79.2075 87.015 77.8771 87.7181 76.7971C87.9161 76.4954 88.138 76.1628 88.3666 75.8199C88.8786 75.0553 89.4077 74.2667 89.8036 73.5947C90.7252 72.038 91.36 70.8551 91.7525 69.9739C92.6297 68.0092 93.8107 65.2148 94.4592 63.0547C95.5412 59.4614 95.9064 56.907 96.101 55.5321C96.2921 54.1949 96.6027 51.4245 96.5276 47.91C96.4594 44.711 96.101 42.4686 95.7835 40.4868C95.4729 38.5427 94.8756 36.2112 94.0053 33.5505C93.21 31.1161 92.2338 29.0451 91.6467 27.8074C90.8924 26.2096 89.4964 23.8095 88.7182 22.654C87.6465 21.0665 87.4553 20.7853 86.3938 19.4035C85.7385 18.5532 84.7043 17.3429 84.2401 16.8286C83.851 16.4 83.0454 15.5154 82.0829 14.5759C80.82 13.345 79.8609 12.5358 79.6834 12.3849C77.9837 10.9723 77.6048 10.698 76.4716 9.87857C75.7207 9.33683 74.6046 8.59965 73.625 8.00306C72.683 7.42703 71.4064 6.71042 70.4507 6.22011C69.6964 5.83267 68.6349 5.33893 67.2047 4.70462C65.6859 4.03258 63.6141 3.30226 62.0542 2.88739C59.938 2.32508 57.9379 1.79362 55.7261 1.51247C54.1424 1.31017 52.2276 1.12845 50.8487 1.04616C49.91 0.991303 48.5482 0.981017 47.3808 1.01873C46.0156 1.0633 44.2816 1.14216 42.9949 1.34789C42.6672 1.39932 42.302 1.45418 41.9265 1.50904C41.0596 1.6359 40.1619 1.76962 39.4349 1.91706C38.4485 2.11935 36.6087 2.49994 35.3595 2.91825C35.0284 3.02797 34.6632 3.14454 34.2878 3.26798C33.4413 3.53885 32.5675 3.82 31.8644 4.09087C30.6015 4.57775 29.1031 5.22235 28.0518 5.73323C26.9801 6.2544 25.6489 6.96072 24.7444 7.4956C23.7341 8.0922 22.2699 8.97681 21.2527 9.74828C18.2491 12.0249 17.3412 12.7141 15.0509 14.9908C13.5389 16.496 11.5626 18.8172 10.0164 20.9122C8.81501 22.5374 7.38146 24.8655 6.44625 26.7033C5.81139 27.9548 5.21066 29.22 4.84545 30.0875C4.3403 31.2841 3.73275 32.995 3.40508 33.9139C3.36071 34.0442 2.27189 37.1301 1.59266 41.4331C1.41518 42.5646 1.24452 44.0013 1.16601 45.0059C1.07727 46.1717 1.03972 47.7043 1.01242 48.9386L1.00559 49.1546C0.985115 50.0324 1.03631 51.3285 1.14212 52.6177C1.25476 53.9412 1.50392 55.7618 1.6541 56.8522C1.85548 58.3197 2.35381 60.2843 2.71902 61.7209C2.72585 61.7415 2.72926 61.7621 2.73609 61.7827C2.97843 62.5747 3.31292 63.6273 3.67472 64.6937C6.06397 71.1534 10.2793 76.8279 16.0032 81.2784C16.0783 81.3367 16.1534 81.395 16.2285 81.4533L15.6175 82.2556C13.614 80.7298 11.7845 79.0429 10.1427 77.2291Z" fill="#FF3300"/>
</svg>
